<svg id="Layer_1" data-name="Layer 1" xmlns="http://www.w3.org/2000/svg" viewBox="0 0 1495.7 210.7"><defs><style>.cls-1{fill:#1a1d29;}.cls-2{fill:#231f20;}</style></defs><rect class="cls-1" x="103.2" y="8.2" width="5.7" height="196.29"/><rect class="cls-1" x="76.7" y="0.9" width="5.7" height="136.69" transform="translate(148.8 -10.3) rotate(90)"/><rect class="cls-1" x="142.2" y="68" width="5.7" height="100.33" transform="translate(290.1 236.4) rotate(180)"/><rect class="cls-1" x="195.7" y="8.2" width="5.7" height="196.29" transform="translate(397.1 212.8) rotate(-180)"/><rect class="cls-1" x="222.2" y="0.9" width="5.7" height="136.69" transform="translate(294.3 -155.8) rotate(90)"/><rect class="cls-1" x="156.8" y="68" width="5.7" height="100.33"/><path class="cls-2" d="M414.9,61.4c6.1,5.2,9.1,12.2,9.1,21.2s-3,16.1-9.1,21.2-14.6,7.6-25.3,7.6H366.9V138H358V53.7h31.6C400.3,53.7,408.8,56.3,414.9,61.4Zm-6.4,36.7c4.4-3.7,6.6-8.8,6.6-15.5s-2.2-12.1-6.6-15.7-10.8-5.5-19.2-5.5H366.9v42.2h22.4C397.7,103.6,404.1,101.8,408.5,98.1Z"/><path class="cls-2" d="M494,81.1c4.7,4.6,7,11.4,7,20.2V138h-8.5V102.1c0-6.5-1.7-11.6-5-15s-8-5.2-14.1-5.2-12.2,2-16.2,6.1-5.9,9.6-5.9,16.8V138h-8.6V48.6h8.6V85.7a23.4,23.4,0,0,1,9.6-8.5,31.8,31.8,0,0,1,14.1-3C483,74.2,489.3,76.5,494,81.1Z"/><path class="cls-2" d="M581.4,74.7V138h-8.2V126.5a23.7,23.7,0,0,1-9.3,9,28,28,0,0,1-13.5,3.1c-8.2,0-14.8-2.3-19.6-6.9s-7.1-11.4-7.1-20.3V74.7h8.5v35.9c0,6.6,1.7,11.7,5,15.2s8,5.1,14.1,5.1,11.9-2,15.8-6.1,5.7-9.7,5.7-16.9V74.7Zm-5.9-.2h1.8c2.7,0,4.6-.7,6-2.2a8.5,8.5,0,0,0,2-5.8,12.9,12.9,0,0,0-2.5-7.7l5.7-2.2a16.8,16.8,0,0,1,3.1,10.1c0,4.4-1.2,7.9-3.7,10.6s-6,3.9-10.6,3.9h-1.8Z"/><path class="cls-2" d="M658.5,91.4a35.3,35.3,0,0,1-.9,31.6,30.2,30.2,0,0,1-11.5,11.5,35.3,35.3,0,0,1-33,0A30.5,30.5,0,0,1,601.5,123a35.1,35.1,0,0,1,0-33.3,29.6,29.6,0,0,1,11.6-11.4,32.6,32.6,0,0,1,16.5-4.1,36.2,36.2,0,0,1,4.7.2h3.2a51.8,51.8,0,0,0,7,.4c3.2,0,5.7-.8,7.3-2.4a7.9,7.9,0,0,0,2.5-6,14.7,14.7,0,0,0-2.4-7.7l5.5-2.2a18.1,18.1,0,0,1,3.3,10.1,13.2,13.2,0,0,1-3,8.8,14.9,14.9,0,0,1-8.6,4.8A30.7,30.7,0,0,1,658.5,91.4ZM641.6,128a21.6,21.6,0,0,0,8.4-8.8,25.5,25.5,0,0,0,3.1-12.8,26.7,26.7,0,0,0-3-12.9,21.6,21.6,0,0,0-8.4-8.8,25.9,25.9,0,0,0-24.2,0,22.5,22.5,0,0,0-8.5,8.8,26.7,26.7,0,0,0-3,12.9,26.6,26.6,0,0,0,3,12.8,22.5,22.5,0,0,0,8.5,8.8,25,25,0,0,0,24.1,0Z"/><path class="cls-2" d="M730.5,81.1c4.7,4.6,7.1,11.4,7.1,20.2V138H729V102.1c0-6.5-1.6-11.6-4.9-15s-8-5.2-14.1-5.2-12.3,2-16.2,6.1-6,9.6-6,16.8V138h-8.6V74.7h8.2V86.4a24,24,0,0,1,9.7-9,30.5,30.5,0,0,1,14.4-3.2C719.5,74.2,725.8,76.5,730.5,81.1Z"/><path class="cls-2" d="M819.7,74.7v55.6c0,10.8-2.6,18.8-7.9,24S798.6,162,788,162a50.6,50.6,0,0,1-16.6-2.6,34.6,34.6,0,0,1-12.9-7.1l4.4-6.5a31.6,31.6,0,0,0,11.1,6.3,40,40,0,0,0,13.8,2.3c8,0,13.9-1.8,17.7-5.6s5.7-9.5,5.7-17.4v-8.1a25.6,25.6,0,0,1-10.4,9.2,32.2,32.2,0,0,1-14.3,3.1,33.5,33.5,0,0,1-16.2-3.9,28.7,28.7,0,0,1-11.5-10.9,31.7,31.7,0,0,1-4.1-16,30.8,30.8,0,0,1,4.1-15.9A29.1,29.1,0,0,1,770.2,78a35,35,0,0,1,16.3-3.8,33.3,33.3,0,0,1,14.6,3.2,26.2,26.2,0,0,1,10.4,9.4V74.7Zm-20,50.4a20.9,20.9,0,0,0,8.6-8.3,24.8,24.8,0,0,0,0-24,21.6,21.6,0,0,0-8.5-8.2,25.6,25.6,0,0,0-12.5-2.9A25.9,25.9,0,0,0,775,84.5a21.9,21.9,0,0,0-8.6,8.2,24.5,24.5,0,0,0-3.1,12.1,23.8,23.8,0,0,0,3.1,12,21.5,21.5,0,0,0,8.6,8.3,24.8,24.8,0,0,0,12.3,2.9A25.5,25.5,0,0,0,799.7,125.1Z"/><path class="cls-2" d="M893.5,61.4H863.8V53.7H932v7.7H902.4V138h-8.9Z"/><path class="cls-2" d="M959.9,77.4a31.5,31.5,0,0,1,14.8-3.2v8.3h-2.1c-6.6,0-11.9,2-15.6,6.1s-5.7,9.9-5.7,17.3V138h-8.5V74.7h8.1V87.1A21.2,21.2,0,0,1,959.9,77.4Z"/><path class="cls-2" d="M1031.2,80.4c4.4,4.1,6.6,10.2,6.6,18.4V138h-8.2v-9.8a19.4,19.4,0,0,1-8.5,7.7,30,30,0,0,1-13.3,2.7c-7.1,0-12.7-1.6-16.9-5a16.5,16.5,0,0,1-6.2-13.4,16.1,16.1,0,0,1,5.8-13c3.9-3.3,10.1-4.9,18.6-4.9h20.2V98.4c0-5.5-1.6-9.6-4.6-12.5s-7.5-4.2-13.4-4.2a34.8,34.8,0,0,0-11.6,1.9,31.6,31.6,0,0,0-9.5,5.5l-3.8-6.4a34.5,34.5,0,0,1,11.5-6.3,45.1,45.1,0,0,1,14.3-2.2C1020.4,74.2,1026.8,76.3,1031.2,80.4Zm-6.9-15.6-11.9-10-11.9,10h-8l15.6-15h8.6l15.6,15Zm-2.7,63.8a20.1,20.1,0,0,0,7.7-9.6V108.6h-19.9c-10.9,0-16.3,3.8-16.3,11.4a10.3,10.3,0,0,0,4.2,8.7c2.8,2.1,6.8,3.2,11.8,3.2A22.8,22.8,0,0,0,1021.6,128.6Z"/><path class="cls-2" d="M1112.3,81.1c4.7,4.6,7.1,11.4,7.1,20.2V138h-8.6V102.1c0-6.5-1.6-11.6-4.9-15s-8-5.2-14.1-5.2-12.2,2-16.2,6.1-6,9.6-6,16.8V138h-8.5V74.7h8.2V86.4a22.8,22.8,0,0,1,9.7-9,30,30,0,0,1,14.4-3.2Q1105.3,74.2,1112.3,81.1Z"/><path class="cls-2" d="M1246.5,53.7V138h-8.8V99.1h-52.8V138H1176V53.7h8.9V91.3h52.8V53.7Z"/><path class="cls-2" d="M1313.4,80.4c4.4,4.1,6.6,10.2,6.6,18.4V138h-8.2v-9.8a19.4,19.4,0,0,1-8.5,7.7,30,30,0,0,1-13.3,2.7c-7.1,0-12.7-1.6-16.9-5a16.5,16.5,0,0,1-6.2-13.4,16.1,16.1,0,0,1,5.8-13c3.9-3.3,10.1-4.9,18.6-4.9h20.2V98.4c0-5.5-1.6-9.6-4.6-12.5s-7.5-4.2-13.4-4.2a34.8,34.8,0,0,0-11.6,1.9,31.6,31.6,0,0,0-9.5,5.5l-3.8-6.4a34.5,34.5,0,0,1,11.5-6.3,45.1,45.1,0,0,1,14.3-2.2C1302.6,74.2,1309,76.3,1313.4,80.4Zm-9.7,48.2a19.7,19.7,0,0,0,7.8-9.6V108.6h-19.9c-10.9,0-16.3,3.8-16.3,11.4a10.3,10.3,0,0,0,4.2,8.7c2.8,2.1,6.8,3.2,11.8,3.2A22.3,22.3,0,0,0,1303.7,128.6Z"/><path class="cls-2" d="M1394.5,81.1c4.7,4.6,7.1,11.4,7.1,20.2V138H1393V102.1c0-6.5-1.6-11.6-4.9-15s-8-5.2-14.1-5.2-12.2,2-16.2,6.1-6,9.6-6,16.8V138h-8.5V74.7h8.2V86.4a22.8,22.8,0,0,1,9.7-9,30,30,0,0,1,14.4-3.2Q1387.5,74.2,1394.5,81.1Z"/><path class="cls-2" d="M1466.1,80.4c4.4,4.1,6.6,10.2,6.6,18.4V138h-8.2v-9.8a19.9,19.9,0,0,1-8.5,7.7,30.3,30.3,0,0,1-13.3,2.7c-7.1,0-12.7-1.6-16.9-5a17.3,17.3,0,0,1-.4-26.4c3.9-3.3,10.1-4.9,18.6-4.9h20.1V98.4c0-5.5-1.5-9.6-4.6-12.5s-7.5-4.2-13.3-4.2a34.8,34.8,0,0,0-11.6,1.9,30.4,30.4,0,0,0-9.5,5.5l-3.9-6.4a35,35,0,0,1,11.6-6.3,44.4,44.4,0,0,1,14.2-2.2C1455.3,74.2,1461.6,76.3,1466.1,80.4Zm-9.7,48.2a19.5,19.5,0,0,0,7.7-9.6V108.6h-19.9q-16.2,0-16.2,11.4a10.3,10.3,0,0,0,4.2,8.7c2.8,2.1,6.7,3.2,11.8,3.2A22.5,22.5,0,0,0,1456.4,128.6Z"/><rect class="cls-1" x="324.4" y="20.3" width="2" height="170.08"/></svg>